<mxfile host="app.diagrams.net" modified="2022-03-20T22:52:25.855Z" agent="5.0 (Windows NT 10.0; Win64; x64) AppleWebKit/537.36 (KHTML, like Gecko) Chrome/99.0.4844.51 Safari/537.36" etag="AhOJBU1WRbJLEGHTn2mM" version="17.1.3" type="github">
  <diagram id="R2lEEEUBdFMjLlhIrx00" name="Page-1">
    <mxGraphModel dx="868" dy="479" grid="1" gridSize="10" guides="1" tooltips="1" connect="1" arrows="1" fold="1" page="1" pageScale="1" pageWidth="1200" pageHeight="1600" math="0" shadow="0" extFonts="Permanent Marker^https://fonts.googleapis.com/css?family=Permanent+Marker">
      <root>
        <mxCell id="0" />
        <mxCell id="1" parent="0" />
        <mxCell id="wcudu52CqqWIICP0eWUs-1" value="Student&amp;nbsp;" style="rounded=0;whiteSpace=wrap;html=1;" vertex="1" parent="1">
          <mxGeometry x="370" y="220" width="120" height="60" as="geometry" />
        </mxCell>
        <mxCell id="wcudu52CqqWIICP0eWUs-2" value="SID" style="ellipse;whiteSpace=wrap;html=1;" vertex="1" parent="1">
          <mxGeometry x="280" y="120" width="80" height="50" as="geometry" />
        </mxCell>
        <mxCell id="wcudu52CqqWIICP0eWUs-3" value="&lt;u&gt;Name&lt;/u&gt;" style="ellipse;whiteSpace=wrap;html=1;" vertex="1" parent="1">
          <mxGeometry x="370" y="120" width="80" height="50" as="geometry" />
        </mxCell>
        <mxCell id="wcudu52CqqWIICP0eWUs-4" value="Age" style="ellipse;whiteSpace=wrap;html=1;" vertex="1" parent="1">
          <mxGeometry x="460" y="120" width="80" height="50" as="geometry" />
        </mxCell>
        <mxCell id="wcudu52CqqWIICP0eWUs-5" value="" style="endArrow=none;html=1;rounded=0;" edge="1" parent="1">
          <mxGeometry width="50" height="50" relative="1" as="geometry">
            <mxPoint x="440" y="220" as="sourcePoint" />
            <mxPoint x="490" y="170" as="targetPoint" />
          </mxGeometry>
        </mxCell>
        <mxCell id="wcudu52CqqWIICP0eWUs-9" value="" style="endArrow=none;html=1;rounded=0;entryX=0.5;entryY=1;entryDx=0;entryDy=0;exitX=0.341;exitY=0.007;exitDx=0;exitDy=0;exitPerimeter=0;" edge="1" parent="1" source="wcudu52CqqWIICP0eWUs-1" target="wcudu52CqqWIICP0eWUs-3">
          <mxGeometry width="50" height="50" relative="1" as="geometry">
            <mxPoint x="375" y="220" as="sourcePoint" />
            <mxPoint x="425" y="170" as="targetPoint" />
          </mxGeometry>
        </mxCell>
        <mxCell id="wcudu52CqqWIICP0eWUs-10" value="" style="endArrow=none;html=1;rounded=0;entryX=0.703;entryY=0.963;entryDx=0;entryDy=0;entryPerimeter=0;" edge="1" parent="1" target="wcudu52CqqWIICP0eWUs-2">
          <mxGeometry width="50" height="50" relative="1" as="geometry">
            <mxPoint x="390" y="220" as="sourcePoint" />
            <mxPoint x="340" y="170" as="targetPoint" />
          </mxGeometry>
        </mxCell>
        <mxCell id="wcudu52CqqWIICP0eWUs-11" value="isA" style="triangle;whiteSpace=wrap;html=1;rotation=90;" vertex="1" parent="1">
          <mxGeometry x="390" y="300" width="60" height="80" as="geometry" />
        </mxCell>
        <mxCell id="wcudu52CqqWIICP0eWUs-12" value="" style="endArrow=none;html=1;rounded=0;exitX=0;exitY=0.5;exitDx=0;exitDy=0;entryX=0.412;entryY=0.993;entryDx=0;entryDy=0;entryPerimeter=0;" edge="1" parent="1" source="wcudu52CqqWIICP0eWUs-11" target="wcudu52CqqWIICP0eWUs-1">
          <mxGeometry width="50" height="50" relative="1" as="geometry">
            <mxPoint x="385" y="330" as="sourcePoint" />
            <mxPoint x="435" y="280" as="targetPoint" />
          </mxGeometry>
        </mxCell>
        <mxCell id="wcudu52CqqWIICP0eWUs-13" value="Graduate" style="rounded=0;whiteSpace=wrap;html=1;" vertex="1" parent="1">
          <mxGeometry x="280" y="380" width="110" height="50" as="geometry" />
        </mxCell>
        <mxCell id="wcudu52CqqWIICP0eWUs-14" value="Undergraduate" style="rounded=0;whiteSpace=wrap;html=1;" vertex="1" parent="1">
          <mxGeometry x="440" y="380" width="110" height="50" as="geometry" />
        </mxCell>
        <mxCell id="wcudu52CqqWIICP0eWUs-15" value="&lt;font style=&quot;font-size: 10px&quot;&gt;Research Field&lt;/font&gt;" style="ellipse;whiteSpace=wrap;html=1;" vertex="1" parent="1">
          <mxGeometry x="300" y="450" width="70" height="30" as="geometry" />
        </mxCell>
        <mxCell id="wcudu52CqqWIICP0eWUs-16" value="&lt;font style=&quot;font-size: 11px&quot;&gt;Concentration&lt;/font&gt;" style="ellipse;whiteSpace=wrap;html=1;" vertex="1" parent="1">
          <mxGeometry x="457.5" y="450" width="75" height="30" as="geometry" />
        </mxCell>
        <mxCell id="wcudu52CqqWIICP0eWUs-20" value="" style="endArrow=classic;html=1;rounded=0;fontSize=10;entryX=0.5;entryY=0;entryDx=0;entryDy=0;exitX=0.4;exitY=0.24;exitDx=0;exitDy=0;exitPerimeter=0;" edge="1" parent="1" source="wcudu52CqqWIICP0eWUs-11" target="wcudu52CqqWIICP0eWUs-14">
          <mxGeometry width="50" height="50" relative="1" as="geometry">
            <mxPoint x="430" y="350" as="sourcePoint" />
            <mxPoint x="480" y="300" as="targetPoint" />
          </mxGeometry>
        </mxCell>
        <mxCell id="wcudu52CqqWIICP0eWUs-26" value="" style="endArrow=classic;html=1;rounded=0;fontSize=10;entryX=0.25;entryY=0;entryDx=0;entryDy=0;exitX=0.356;exitY=0.847;exitDx=0;exitDy=0;exitPerimeter=0;" edge="1" parent="1" source="wcudu52CqqWIICP0eWUs-11" target="wcudu52CqqWIICP0eWUs-13">
          <mxGeometry width="50" height="50" relative="1" as="geometry">
            <mxPoint x="340" y="380" as="sourcePoint" />
            <mxPoint x="390" y="330" as="targetPoint" />
          </mxGeometry>
        </mxCell>
        <mxCell id="wcudu52CqqWIICP0eWUs-27" value="" style="endArrow=none;html=1;rounded=0;fontSize=10;entryX=0.5;entryY=1;entryDx=0;entryDy=0;exitX=0.5;exitY=0;exitDx=0;exitDy=0;" edge="1" parent="1" source="wcudu52CqqWIICP0eWUs-15" target="wcudu52CqqWIICP0eWUs-13">
          <mxGeometry width="50" height="50" relative="1" as="geometry">
            <mxPoint x="310" y="460" as="sourcePoint" />
            <mxPoint x="360" y="410" as="targetPoint" />
          </mxGeometry>
        </mxCell>
        <mxCell id="wcudu52CqqWIICP0eWUs-30" value="" style="endArrow=none;html=1;rounded=0;fontSize=10;exitX=0.5;exitY=0;exitDx=0;exitDy=0;entryX=0.5;entryY=1;entryDx=0;entryDy=0;" edge="1" parent="1" source="wcudu52CqqWIICP0eWUs-16" target="wcudu52CqqWIICP0eWUs-14">
          <mxGeometry width="50" height="50" relative="1" as="geometry">
            <mxPoint x="450" y="480" as="sourcePoint" />
            <mxPoint x="500" y="430" as="targetPoint" />
          </mxGeometry>
        </mxCell>
        <mxCell id="wcudu52CqqWIICP0eWUs-31" value="Affiliated With" style="rhombus;whiteSpace=wrap;html=1;fontSize=10;" vertex="1" parent="1">
          <mxGeometry x="560" y="200" width="80" height="80" as="geometry" />
        </mxCell>
        <mxCell id="wcudu52CqqWIICP0eWUs-32" value="" style="endArrow=none;html=1;rounded=0;fontSize=10;entryX=0;entryY=0.5;entryDx=0;entryDy=0;" edge="1" parent="1" target="wcudu52CqqWIICP0eWUs-31">
          <mxGeometry width="50" height="50" relative="1" as="geometry">
            <mxPoint x="490" y="240" as="sourcePoint" />
            <mxPoint x="540" y="200" as="targetPoint" />
          </mxGeometry>
        </mxCell>
        <mxCell id="wcudu52CqqWIICP0eWUs-35" value="" style="endArrow=none;html=1;rounded=0;fontSize=10;" edge="1" parent="1" target="wcudu52CqqWIICP0eWUs-36">
          <mxGeometry width="50" height="50" relative="1" as="geometry">
            <mxPoint x="640" y="240" as="sourcePoint" />
            <mxPoint x="710" y="240" as="targetPoint" />
          </mxGeometry>
        </mxCell>
        <mxCell id="wcudu52CqqWIICP0eWUs-36" value="Departments" style="rounded=0;whiteSpace=wrap;html=1;fontSize=10;" vertex="1" parent="1">
          <mxGeometry x="700" y="215" width="100" height="50" as="geometry" />
        </mxCell>
        <mxCell id="wcudu52CqqWIICP0eWUs-37" value="" style="endArrow=none;html=1;rounded=0;fontSize=10;" edge="1" parent="1">
          <mxGeometry width="50" height="50" relative="1" as="geometry">
            <mxPoint x="770" y="215" as="sourcePoint" />
            <mxPoint x="820" y="165" as="targetPoint" />
          </mxGeometry>
        </mxCell>
        <mxCell id="wcudu52CqqWIICP0eWUs-42" value="" style="ellipse;whiteSpace=wrap;html=1;fontSize=10;" vertex="1" parent="1">
          <mxGeometry x="800" y="130" width="60" height="40" as="geometry" />
        </mxCell>
      </root>
    </mxGraphModel>
  </diagram>
</mxfile>
